<svg width="96" height="96" viewBox="0 0 96 96" fill="none" xmlns="http://www.w3.org/2000/svg">
<path d="M0 0L16.5 31.5V63L0 31.5V0Z" fill="#E0FF00"/>
<rect x="32.25" y="31.5" width="15.75" height="31.5" fill="#00E0FF"/>
<path d="M16.5 63L0 96L0 31.5L16.5 63Z" fill="#FF00E0"/>
<path d="M0 0H32.25V31.5H16.5L0 0Z" fill="#00E0FF"/>
<path d="M16.5 63H48V75L32.25 85.5L16.5 75V63Z" fill="#FF00E0"/>
<path d="M64.5 10.5H96V22.5L80.25 33L64.5 22.5V10.5Z" fill="#E0FF00"/>
<path d="M32.25 85.5L16.5 96V75L32.25 85.5Z" fill="#E0FF00"/>
<path d="M80.25 33L96 43.5L80.25 43.5L80.25 33Z" fill="#FF00E0"/>
<path d="M48 75H80.25V96H48L32.25 85.5L48 75Z" fill="#E0FF00"/>
<rect x="64.5" y="43.5" width="15.75" height="15.75" fill="#E0FF00"/>
<path d="M80.25 59.25H96V75H80.25V59.25Z" fill="#FF00E0"/>
<path d="M80.2451 0H56.25L56.25 75H64.4951V43.5L80.2451 33L64.4951 22.5V10.5L80.2451 0Z" fill="#00E0FF"/>
</svg>
