<svg width="96" height="96" viewBox="0 0 96 96" fill="none" xmlns="http://www.w3.org/2000/svg">
<path d="M0 0L16.5 31.5V63L0 31.5V0Z" fill="#ED0076" fill-opacity="0.22"/>
<rect x="32.25" y="31.5" width="15.75" height="31.5" fill="#00D882" fill-opacity="0.4"/>
<rect x="64.5" y="59.25" width="15.75" height="15.75" fill="#ED0076" fill-opacity="0.22"/>
<rect x="80.25" y="43.5" width="15.75" height="15.75" fill="#ED0076" fill-opacity="0.22"/>
<rect x="80.25" y="75" width="15.75" height="21" fill="#ED0076" fill-opacity="0.22"/>
<path d="M16.5 63L0 96L0 31.5L16.5 63Z" fill="#0083EF" fill-opacity="0.33"/>
<path d="M0 0H32.25V31.5H16.5L0 0Z" fill="#00D882" fill-opacity="0.4"/>
<path d="M16.5 63H48V75L32.25 85.5L16.5 75V63Z" fill="#E29B00" fill-opacity="0.46"/>
<path d="M64.5 10.5H96V22.5L80.25 33L64.5 22.5V10.5Z" fill="#E29B00" fill-opacity="0.46"/>
<path d="M32.25 85.5L16.5 96V75L32.25 85.5Z" fill="#0083EF" fill-opacity="0.33"/>
<path d="M80.25 33L80.25 43.5L64.5 43.5L80.25 33Z" fill="#00D882" fill-opacity="0.4"/>
<path d="M96 22.5L96 43.5L80.25 33L96 22.5Z" fill="#0083EF" fill-opacity="0.33"/>
<path d="M56.25 0H80.25L64.5 10.5V75H56.25V0Z" fill="#00D882" fill-opacity="0.4"/>
<path d="M48 75H80.25V96H48L32.25 85.5L48 75Z" fill="#0083EF" fill-opacity="0.33"/>
</svg>
